<svg width="286" height="97" viewBox="0 0 286 97" fill="none" xmlns="http://www.w3.org/2000/svg">
<g filter="url(#filter0_d_227_940)">
<path fill-rule="evenodd" clip-rule="evenodd" d="M8.31845 22.2805C6.71681 16.219 11.1213 4.50001 22.3328 4.50001L75.1869 4.49999C80.4742 4.50002 88 5.29566 88 21.0682C82.0758 26.3091 66.0594 40.4528 61.2545 44.4938L88 67.5401C88 76.4305 84.4783 83.6918 74.0676 84.5H20.4127C14.807 83.6918 6.71683 78.8551 8.31846 68.3484C11.8773 68.3484 18.7353 68.2036 26.6464 68.0366C37.4273 67.809 50.1637 67.5401 59.1705 67.5401L8.31845 22.2805ZM34.427 21.4598H59.6529L47.2402 32.3706L34.427 21.4598Z" fill="#FEF4EE"/>
</g>
<g filter="url(#filter1_d_227_940)">
<path d="M108.762 41.5742C108.879 40.9883 108.957 40.5195 108.996 40.168C109.035 39.7773 108.898 39.3672 108.586 38.9375C108.742 38.3125 108.859 37.8242 108.938 37.4727C109.055 37.1211 109.074 36.6328 108.996 36.0078C109.348 34.9922 109.875 34.1328 110.578 33.4297C111.32 32.7266 112.121 32.1406 112.98 31.6719C113.84 31.1641 114.738 30.7539 115.676 30.4414C116.613 30.0898 117.492 29.7969 118.312 29.5625C118.312 29.4063 118.234 29.3281 118.078 29.3281C117.922 29.3281 117.883 29.2305 117.961 29.0352C120.07 28.6445 122.18 28.0781 124.289 27.3359C126.438 26.5938 128.625 25.9297 130.852 25.3438C133.078 24.7578 135.363 24.4062 137.707 24.2891C140.051 24.1328 142.512 24.4258 145.09 25.168C145.246 25.6367 145.461 26.0859 145.734 26.5156C146.008 26.9453 146.281 27.375 146.555 27.8047C146.867 28.1953 147.141 28.5859 147.375 28.9766C147.609 29.3672 147.746 29.7773 147.785 30.207C148.254 30.6367 148.625 31.1055 148.898 31.6133C149.211 32.082 149.27 32.7266 149.074 33.5469C148.645 33.8594 148.195 34.1719 147.727 34.4844C147.258 34.7969 146.77 35.0898 146.262 35.3633C144.504 34.9336 142.746 34.7773 140.988 34.8945C139.23 35.0117 137.648 35.1484 136.242 35.3047C135.812 34.8359 135.305 34.6211 134.719 34.6602C134.133 34.6602 133.508 34.7578 132.844 34.9531C132.219 35.1094 131.594 35.2852 130.969 35.4805C130.344 35.6367 129.758 35.6758 129.211 35.5977C128.781 35.9883 128.215 36.2617 127.512 36.418C126.809 36.5352 126.066 36.6328 125.285 36.7109C125.246 36.9062 125.285 37.043 125.402 37.1211C125.52 37.1992 125.539 37.3555 125.461 37.5898C125.734 37.9414 126.105 38.1953 126.574 38.3516C127.043 38.4688 127.512 38.5859 127.98 38.7031C128.488 38.8203 128.938 38.9961 129.328 39.2305C129.719 39.4258 129.973 39.7578 130.09 40.2266C130.793 40.2656 131.398 40.4609 131.906 40.8125C132.414 41.125 132.844 41.5156 133.195 41.9844C133.547 42.4531 133.801 42.9609 133.957 43.5078C134.113 44.0156 134.172 44.4844 134.133 44.9141C134.289 45.3047 134.445 45.4609 134.602 45.3828C134.797 45.3047 135.012 45.4023 135.246 45.6758C135.402 46.2617 135.754 46.8867 136.301 47.5508C136.887 48.1758 137.336 48.8594 137.648 49.6016C137.727 50.7734 137.785 51.8281 137.824 52.7656C137.902 53.7031 137.746 54.6211 137.355 55.5195C136.691 57.2383 135.734 58.7812 134.484 60.1484C133.234 61.5156 131.809 62.7266 130.207 63.7812C128.645 64.7969 126.984 65.6953 125.227 66.4766C123.469 67.2188 121.73 67.8438 120.012 68.3516C119.855 68.3125 119.66 68.3125 119.426 68.3516C119.23 68.3906 119.191 68.2734 119.309 68C118.957 68.3125 118.547 68.5078 118.078 68.5859C117.648 68.6641 117.16 68.6836 116.613 68.6445C116.105 68.6445 115.578 68.625 115.031 68.5859C114.523 68.5469 114.016 68.5664 113.508 68.6445C113.195 68.332 112.902 68.0195 112.629 67.707C112.395 67.3945 112.199 67.0234 112.043 66.5938C111.848 66.5547 111.75 66.4375 111.75 66.2422C111.789 66.0078 111.711 65.8906 111.516 65.8906C111.516 65.7344 111.535 65.6172 111.574 65.5391C111.613 65.4609 111.652 65.3828 111.691 65.3047C111.848 65.1875 111.906 65.1094 111.867 65.0703C111.867 64.9922 111.809 64.9336 111.691 64.8945C111.613 64.8164 111.516 64.7383 111.398 64.6602C111.32 64.582 111.301 64.4844 111.34 64.3672C111.535 64.0156 111.594 63.6055 111.516 63.1367C111.477 62.6289 111.438 62.1211 111.398 61.6133C111.359 61.1055 111.398 60.6367 111.516 60.207C111.633 59.7383 111.965 59.3477 112.512 59.0352C114.113 59.1914 115.617 59.1133 117.023 58.8008C118.469 58.4883 119.816 58.0586 121.066 57.5117C122.355 56.9648 123.566 56.3789 124.699 55.7539C125.871 55.0898 127.004 54.4844 128.098 53.9375C128.215 53.5469 128.391 53.2148 128.625 52.9414C128.898 52.668 129.172 52.4141 129.445 52.1797C129.719 51.9062 129.973 51.6328 130.207 51.3594C130.441 51.0469 130.617 50.6758 130.734 50.2461C130.773 50.0898 130.773 49.9727 130.734 49.8945C130.695 49.8164 130.637 49.7578 130.559 49.7188C130.48 49.6406 130.402 49.5625 130.324 49.4844C130.246 49.4062 130.207 49.2891 130.207 49.1328C130.09 49.0938 129.973 49.0547 129.855 49.0156C129.777 48.9766 129.699 48.957 129.621 48.957C128.605 48.4492 127.531 48.0195 126.398 47.668C125.266 47.3164 124.309 46.9258 123.527 46.4961C123.059 46.8086 122.59 46.8867 122.121 46.7305C121.652 46.5742 121.086 46.418 120.422 46.2617C118.781 46.1836 117.219 46.0273 115.734 45.793C114.289 45.5586 112.883 45.1484 111.516 44.5625C111.438 44.3281 111.34 44.1328 111.223 43.9766C111.105 43.7812 110.832 43.7227 110.402 43.8008C110.129 43.4102 109.836 43.0586 109.523 42.7461C109.25 42.3945 108.996 42.0039 108.762 41.5742ZM175.559 50.4219C175.52 50.8906 175.559 51.3398 175.676 51.7695C175.793 52.1992 175.93 52.6289 176.086 53.0586C176.281 53.4492 176.457 53.8594 176.613 54.2891C176.77 54.7188 176.887 55.1484 176.965 55.5781C177.043 56.125 177.043 56.7305 176.965 57.3945C176.887 58.0195 176.75 58.6445 176.555 59.2695C176.359 59.8555 176.105 60.4023 175.793 60.9102C175.48 61.3789 175.109 61.7305 174.68 61.9648C174.133 62.668 173.469 63.2148 172.688 63.6055C171.906 63.9961 171.184 64.4648 170.52 65.0117C170.09 65.2852 169.602 65.4805 169.055 65.5977C168.547 65.7148 168.02 65.832 167.473 65.9492C167.043 66.1836 166.535 66.4375 165.949 66.7109C165.363 66.9453 164.758 67.1797 164.133 67.4141C163.508 67.6094 162.883 67.7656 162.258 67.8828C161.633 67.9609 161.086 67.9805 160.617 67.9414C159.445 68.3711 158.293 68.6445 157.16 68.7617C156.066 68.918 154.777 68.8398 153.293 68.5273C151.887 68.7227 150.578 68.6641 149.367 68.3516C148.195 68.0391 147.141 67.5508 146.203 66.8867C145.305 66.1836 144.504 65.3633 143.801 64.4258C143.137 63.4492 142.59 62.4336 142.16 61.3789C141.848 59.1523 141.926 57.1406 142.395 55.3438C142.863 53.5078 143.527 51.8281 144.387 50.3047C145.285 48.7422 146.301 47.3164 147.434 46.0273C148.566 44.6992 149.66 43.4102 150.715 42.1602C150.949 42.2383 151.125 42.2383 151.242 42.1602C151.398 42.043 151.535 41.9062 151.652 41.75C151.77 41.5547 151.887 41.3789 152.004 41.2227C152.16 41.0664 152.336 40.9688 152.531 40.9297C152.805 40.3438 153.195 39.9141 153.703 39.6406C154.25 39.3281 154.68 38.8984 154.992 38.3516C155.344 38.2734 155.637 38.1562 155.871 38C156.105 37.8438 156.32 37.668 156.516 37.4727C156.75 37.2773 156.984 37.1016 157.219 36.9453C157.453 36.75 157.727 36.6133 158.039 36.5352V35.8906C158.742 35.5781 159.25 35.2266 159.562 34.8359C159.914 34.4062 160.324 33.8984 160.793 33.3125C161.145 33.2734 161.418 33.2539 161.613 33.2539C161.848 33.2539 162.18 33.2148 162.609 33.1367C162.922 32.5898 163.195 32.1797 163.43 31.9062C163.703 31.6328 164.094 31.3398 164.602 31.0273C165.07 31.2617 165.578 31.418 166.125 31.4961C166.711 31.5742 167.219 31.8281 167.648 32.2578C167.688 32.6484 167.805 32.9609 168 33.1953C168.195 33.3906 168.41 33.5859 168.645 33.7812C168.879 33.9375 169.094 34.1133 169.289 34.3086C169.523 34.5039 169.68 34.7773 169.758 35.1289C169.914 35.168 170.012 35.1484 170.051 35.0703C170.129 34.9922 170.246 34.9727 170.402 35.0117C170.52 35.5586 170.656 35.9297 170.812 36.125C170.969 36.2812 171.125 36.6133 171.281 37.1211C171.086 37.5117 170.93 37.9219 170.812 38.3516C170.734 38.7422 170.5 39.0352 170.109 39.2305C170.07 39.5039 170.148 39.6602 170.344 39.6992C170.539 39.6992 170.656 39.7969 170.695 39.9922C170.734 40.3438 170.676 40.5977 170.52 40.7539C171.457 42.2773 172.297 43.8984 173.039 45.6172C173.781 47.2969 174.621 48.8984 175.559 50.4219ZM168.234 55.9883C168.391 55.5586 168.586 55.207 168.82 54.9336C169.094 54.6602 169.25 54.25 169.289 53.7031C169.094 53.3906 168.977 53.1562 168.938 53C168.898 52.8047 168.879 52.5117 168.879 52.1211C168.02 50.9102 167.277 49.6211 166.652 48.2539C166.027 46.8477 165.324 45.5391 164.543 44.3281C164.465 44.4844 164.328 44.6406 164.133 44.7969C163.938 44.9531 163.723 44.9141 163.488 44.6797C163.41 44.9922 163.273 45.2266 163.078 45.3828C162.883 45.5 162.668 45.5586 162.434 45.5586C162.199 45.5195 161.945 45.4609 161.672 45.3828C161.438 45.2656 161.223 45.1289 161.027 44.9727C159.895 45.8711 158.762 46.75 157.629 47.6094C156.496 48.4688 155.48 49.4648 154.582 50.5977C154.426 50.6758 154.328 50.7148 154.289 50.7148C154.25 50.6758 154.133 50.6953 153.938 50.7734C153.625 51.5156 153.234 52.1992 152.766 52.8242C152.336 53.4102 151.906 54.0156 151.477 54.6406C151.047 55.2656 150.676 55.9297 150.363 56.6328C150.051 57.3359 149.875 58.1562 149.836 59.0938C150.5 59.6406 151.281 59.9727 152.18 60.0898C153.078 60.207 153.996 60.2266 154.934 60.1484C155.91 60.0703 156.848 59.9531 157.746 59.7969C158.684 59.6016 159.543 59.5039 160.324 59.5039C161.965 59.1133 163.371 58.6055 164.543 57.9805C165.715 57.3164 166.945 56.6523 168.234 55.9883ZM210.129 58.4492C210.363 58.5664 210.5 58.7617 210.539 59.0352C210.578 59.3086 210.578 59.5234 210.539 59.6797C209.836 60.5781 209.348 61.2031 209.074 61.5547C208.801 61.9062 208.605 62.1797 208.488 62.375C208.371 62.5312 208.234 62.668 208.078 62.7852C207.961 62.9023 207.668 63.1562 207.199 63.5469C205.441 64.6016 203.625 65.5391 201.75 66.3594C199.914 67.1797 197.98 67.7461 195.949 68.0586C195.637 68.4883 195.031 68.7812 194.133 68.9375C193.273 69.1328 192.473 69.3086 191.73 69.4648C191.574 69.3867 191.477 69.2695 191.438 69.1133C191.438 68.9961 191.359 68.8984 191.203 68.8203C191.164 69.2109 190.988 69.4062 190.676 69.4062C190.363 69.4453 189.973 69.3672 189.504 69.1719C189.074 69.0156 188.605 68.7812 188.098 68.4688C187.629 68.1953 187.219 67.9414 186.867 67.707C186.672 68.0195 186.457 68.332 186.223 68.6445C186.027 68.957 185.773 69.1719 185.461 69.2891C185.031 69.2109 184.699 69.1523 184.465 69.1133C184.27 69.0742 184.074 69.1523 183.879 69.3477C183.645 69.2305 183.449 69.0938 183.293 68.9375C183.176 68.7812 183.039 68.625 182.883 68.4688C182.766 68.3516 182.609 68.2344 182.414 68.1172C182.258 68 182.023 67.9023 181.711 67.8242C181.789 67.668 181.75 67.4336 181.594 67.1211C181.438 66.7695 181.203 66.5547 180.891 66.4766C181.047 66.2031 180.969 65.8711 180.656 65.4805C180.383 65.0508 180.168 64.582 180.012 64.0742C180.09 63.6445 180.148 63.1758 180.188 62.668C180.227 62.1602 180.461 61.8672 180.891 61.7891C180.852 61.5156 180.793 61.2812 180.715 61.0859C180.637 60.8906 180.559 60.6953 180.48 60.5C180.754 60.2656 180.949 59.9922 181.066 59.6797C181.184 59.3281 181.281 58.9766 181.359 58.625C181.438 58.2734 181.535 57.9219 181.652 57.5703C181.77 57.2188 181.984 56.9258 182.297 56.6914C182.648 55.5195 182.922 54.6602 183.117 54.1133C183.312 53.5273 183.449 52.9609 183.527 52.4141C183.645 51.8672 183.762 51.2812 183.879 50.6562C184.035 50.0312 184.289 49.25 184.641 48.3125C184.602 47.7266 184.66 47.2188 184.816 46.7891C184.973 46.3203 185.129 45.8711 185.285 45.4414C185.48 44.9727 185.637 44.5039 185.754 44.0352C185.871 43.5273 185.852 42.9414 185.695 42.2773C185.148 42.3164 184.758 42.5117 184.523 42.8633C184.289 43.1758 184.133 43.6055 184.055 44.1523C183.742 44.4648 183.352 44.6211 182.883 44.6211C182.453 44.582 182.062 44.6211 181.711 44.7383C180.344 44.1914 179.211 43.4102 178.312 42.3945C177.414 41.3789 176.691 40.1875 176.145 38.8203C176.496 37.9219 177.023 37.1797 177.727 36.5938C178.43 35.9688 179.23 35.4609 180.129 35.0703C181.027 34.6406 181.984 34.3086 183 34.0742C184.016 33.8008 184.992 33.5469 185.93 33.3125C187.453 33.0391 188.977 32.7266 190.5 32.375C192.023 32.0234 193.664 31.9062 195.422 32.0234C195.656 31.9062 195.93 31.8477 196.242 31.8477C196.594 31.8086 196.945 31.7891 197.297 31.7891C197.648 31.7891 197.98 31.7891 198.293 31.7891C198.645 31.75 198.938 31.6719 199.172 31.5547C199.367 31.7891 199.641 31.9453 199.992 32.0234C200.383 32.0625 200.793 32.2383 201.223 32.5508C201.691 32.1992 202.082 32.1211 202.395 32.3164C202.746 32.5117 203.059 32.7266 203.332 32.9609C203.605 33.1953 203.859 33.4102 204.094 33.6055C204.367 33.8008 204.641 33.8984 204.914 33.8984C205.188 34.25 205.52 34.582 205.91 34.8945C206.34 35.207 206.73 35.5391 207.082 35.8906C207.473 36.2031 207.785 36.5547 208.02 36.9453C208.293 37.3359 208.43 37.7852 208.43 38.293C208.391 38.4883 208.449 38.6055 208.605 38.6445C208.762 38.6836 208.879 38.7617 208.957 38.8789C208.996 40.0898 208.801 41.1445 208.371 42.043C207.98 42.9023 207.473 43.7031 206.848 44.4453C206.262 45.1875 205.598 45.8906 204.855 46.5547C204.152 47.2188 203.508 47.9219 202.922 48.6641C203.312 49.1719 203.762 49.6211 204.27 50.0117C204.777 50.4023 205.285 50.793 205.793 51.1836C206.34 51.5742 206.848 51.9844 207.316 52.4141C207.785 52.8438 208.176 53.3516 208.488 53.9375C208.566 54.0156 208.664 54.0938 208.781 54.1719C208.898 54.2109 209.016 54.2695 209.133 54.3477C209.25 54.7383 209.406 55.1484 209.602 55.5781C209.797 55.9688 209.953 56.3594 210.07 56.75C210.227 57.1016 210.324 57.4336 210.363 57.7461C210.402 58.0195 210.324 58.2539 210.129 58.4492ZM199.816 38.8789C197.824 38.8008 195.832 38.9766 193.84 39.4062C191.887 39.8359 190.246 40.4414 188.918 41.2227C189.582 41.7695 190.246 42.2578 190.91 42.6875C191.613 43.1172 192.16 43.7031 192.551 44.4453C194.074 43.8203 195.422 43.0391 196.594 42.1016C197.766 41.125 198.84 40.0508 199.816 38.8789ZM200.578 57.5703C200.695 57.1797 200.91 56.8672 201.223 56.6328C201.535 56.3984 201.848 56.1836 202.16 55.9883C202.473 55.7539 202.746 55.5195 202.98 55.2852C203.215 55.0117 203.312 54.6406 203.273 54.1719C202.023 53.5078 200.871 53.1172 199.816 53C198.801 52.8438 197.824 52.8438 196.887 53C195.988 53.1172 195.109 53.3125 194.25 53.5859C193.43 53.8594 192.59 54.0547 191.73 54.1719C191.301 55.3047 190.852 56.5352 190.383 57.8633C189.914 59.1914 189.465 60.4805 189.035 61.7305C190.207 61.5742 191.281 61.3398 192.258 61.0273C193.234 60.6758 194.172 60.3047 195.07 59.9141C196.008 59.5234 196.906 59.1328 197.766 58.7422C198.664 58.3125 199.602 57.9219 200.578 57.5703ZM221.789 61.9062C221.359 63.4688 220.969 64.6602 220.617 65.4805C220.305 66.2617 219.816 67.082 219.152 67.9414C218.645 67.8633 218.293 67.9219 218.098 68.1172C217.902 68.3125 217.688 68.4883 217.453 68.6445C217.102 68.7227 216.848 68.7227 216.691 68.6445C216.535 68.5664 216.398 68.4688 216.281 68.3516C216.164 68.2734 216.008 68.1758 215.812 68.0586C215.656 67.9805 215.402 67.9414 215.051 67.9414C214.973 67.6289 214.875 67.3359 214.758 67.0625C214.68 66.7891 214.426 66.6914 213.996 66.7695C214.074 66.457 214.094 66.2031 214.055 66.0078C214.016 65.7734 213.957 65.5781 213.879 65.4219C213.84 65.2266 213.801 65.0508 213.762 64.8945C213.723 64.6992 213.742 64.4648 213.82 64.1914C213.625 64.1914 213.469 64.0547 213.352 63.7812C213.234 63.5078 213.098 63.2344 212.941 62.9609C213.059 62.2578 213.176 61.5938 213.293 60.9688C213.41 60.3438 213.547 59.7578 213.703 59.2109C213.898 58.6641 214.055 58.1172 214.172 57.5703C214.289 57.0234 214.23 56.457 213.996 55.8711C214.152 55.9883 214.27 55.9688 214.348 55.8125C214.426 55.6172 214.484 55.3828 214.523 55.1094C214.562 54.7969 214.582 54.5039 214.582 54.2305C214.582 53.918 214.562 53.6641 214.523 53.4688C214.914 52.4531 215.227 51.418 215.461 50.3633C215.734 49.2695 215.969 48.1953 216.164 47.1406C216.398 46.0859 216.633 45.0508 216.867 44.0352C217.102 43.0195 217.414 42.082 217.805 41.2227C218.234 41.1445 218.703 41.2031 219.211 41.3984C219.758 41.5547 220.09 41.7695 220.207 42.043C221.223 41.2617 222.121 40.3242 222.902 39.2305C223.684 38.0977 224.484 37.0039 225.305 35.9492C226.125 34.8945 227.023 33.957 228 33.1367C229.016 32.3164 230.285 31.8281 231.809 31.6719C232.59 32.2578 233.449 32.8633 234.387 33.4883C235.363 34.0742 236.164 34.8555 236.789 35.832C237.102 35.9883 237.355 36.1641 237.551 36.3594C237.785 36.5156 238.059 36.6914 238.371 36.8867V37.5898C238.84 38.0195 239.211 38.5273 239.484 39.1133C239.797 39.6602 240.07 40.2656 240.305 40.9297C240.539 41.5547 240.773 42.1992 241.008 42.8633C241.242 43.4883 241.516 44.0938 241.828 44.6797C241.75 44.875 241.711 45.0508 241.711 45.207C241.711 45.3242 241.73 45.4609 241.77 45.6172C241.848 45.7734 241.906 45.9297 241.945 46.0859C241.984 46.2422 241.984 46.457 241.945 46.7305C241.828 48.4492 241.262 49.8359 240.246 50.8906C239.27 51.9453 238.078 52.8242 236.672 53.5273C235.266 54.1914 233.762 54.7578 232.16 55.2266C230.559 55.6953 229.113 56.2031 227.824 56.75C227.824 56.9062 227.883 56.9844 228 56.9844C228.156 56.9844 228.215 57.082 228.176 57.2773C229.113 57.8633 229.855 58.332 230.402 58.6836C230.949 59.0352 231.457 59.3281 231.926 59.5625C232.434 59.7969 232.961 60.0117 233.508 60.207C234.094 60.3633 234.895 60.5586 235.91 60.793C236.926 61.0273 237.707 61.2227 238.254 61.3789C238.84 61.4961 239.367 61.6133 239.836 61.7305C240.305 61.8086 240.773 61.8867 241.242 61.9648C241.75 62.0039 242.453 62.0625 243.352 62.1406C243.703 62.4922 243.996 62.9219 244.23 63.4297C244.504 63.8984 244.68 64.3867 244.758 64.8945C244.836 65.3633 244.855 65.832 244.816 66.3008C244.777 66.7305 244.641 67.082 244.406 67.3555C244.445 67.4727 244.523 67.5312 244.641 67.5312C244.797 67.4922 244.953 67.4922 245.109 67.5312C244.875 67.6875 244.68 67.8828 244.523 68.1172C244.367 68.3516 244.211 68.5859 244.055 68.8203C243.898 69.0547 243.723 69.25 243.527 69.4062C243.332 69.6016 243.059 69.7188 242.707 69.7578C241.496 70.2266 239.973 70.2461 238.137 69.8164C236.301 69.4258 233.977 68.6836 231.164 67.5898C229.758 67.043 228.605 66.5742 227.707 66.1836C226.848 65.7539 226.086 65.3438 225.422 64.9531C224.797 64.5234 224.211 64.0742 223.664 63.6055C223.156 63.1367 222.531 62.5703 221.789 61.9062ZM230.168 41.8086C229.738 42.4336 229.25 43 228.703 43.5078C228.195 44.0156 227.688 44.543 227.18 45.0898C226.711 45.5977 226.281 46.1836 225.891 46.8477C225.5 47.4727 225.227 48.2148 225.07 49.0742C226.438 48.918 227.863 48.5469 229.348 47.9609C230.832 47.3359 232.238 46.75 233.566 46.2031C233.41 44.9922 232.98 44.0156 232.277 43.2734C231.613 42.5312 230.91 42.043 230.168 41.8086ZM277.512 35.0117C277.551 35.2852 277.551 35.5 277.512 35.6562C277.512 35.7734 277.492 35.8906 277.453 36.0078C277.453 36.125 277.453 36.2617 277.453 36.418C277.453 36.5352 277.492 36.7305 277.57 37.0039C276.75 38.332 275.793 39.25 274.699 39.7578C273.645 40.2266 272.492 40.5781 271.242 40.8125C269.992 41.0078 268.703 41.2227 267.375 41.457C266.086 41.6914 264.797 42.1992 263.508 42.9805C263 42.7852 262.531 42.7852 262.102 42.9805C261.711 43.1758 261.125 43.2344 260.344 43.1562C260.109 43.3906 259.816 43.5664 259.465 43.6836C259.113 43.7617 258.762 43.8594 258.41 43.9766C258.566 44.3281 258.625 44.6992 258.586 45.0898C258.586 45.4414 258.645 45.7344 258.762 45.9688C260.129 46.0859 261.633 46.0664 263.273 45.9102C264.953 45.7539 266.594 45.6562 268.195 45.6172C268.234 45.8125 268.215 45.9492 268.137 46.0273C268.059 46.0664 268.039 46.1641 268.078 46.3203C268.352 46.5156 268.625 46.7695 268.898 47.082C269.172 47.3555 269.445 47.6289 269.719 47.9023C269.992 48.1758 270.266 48.4102 270.539 48.6055C270.852 48.7617 271.203 48.8203 271.594 48.7812C271.75 49.0938 271.848 49.4453 271.887 49.8359C271.965 50.1875 271.926 50.5586 271.77 50.9492C271.145 51.3789 270.52 51.8281 269.895 52.2969C269.27 52.7266 268.605 53.1172 267.902 53.4688C267.238 53.8203 266.516 54.1133 265.734 54.3477C264.992 54.543 264.152 54.6211 263.215 54.582C263.02 54.582 262.863 54.582 262.746 54.582C262.668 54.582 262.551 54.5234 262.395 54.4062C262.082 54.6016 261.633 54.6602 261.047 54.582C260.5 54.5039 260.07 54.5625 259.758 54.7578C259.328 54.5625 258.801 54.4844 258.176 54.5234C257.59 54.5234 257.062 54.4453 256.594 54.2891C255.969 55.1094 255.402 55.9883 254.895 56.9258C254.387 57.8633 253.938 58.8594 253.547 59.9141C254.875 60.1094 255.969 60.1875 256.828 60.1484C257.727 60.1094 258.566 60.0508 259.348 59.9727C260.129 59.8555 260.93 59.7578 261.75 59.6797C262.57 59.5625 263.605 59.5234 264.855 59.5625C265.637 59.1328 266.555 58.8594 267.609 58.7422C268.703 58.5859 269.699 58.3516 270.598 58.0391C270.91 58.1562 271.184 58.3711 271.418 58.6836C271.652 58.957 271.867 59.2305 272.062 59.5039C272.297 59.7383 272.531 59.9531 272.766 60.1484C273 60.3438 273.293 60.4219 273.645 60.3828C273.801 60.5391 273.898 60.7344 273.938 60.9688C274.016 61.1641 274.074 61.3594 274.113 61.5547C274.152 61.75 274.211 61.9258 274.289 62.082C274.406 62.1992 274.582 62.2383 274.816 62.1992C274.23 63.4883 273.547 64.4844 272.766 65.1875C272.023 65.8516 271.164 66.3594 270.188 66.7109C269.211 67.0625 268.117 67.3359 266.906 67.5312C265.734 67.7266 264.426 67.9609 262.98 68.2344C262.629 68.3125 262.336 68.293 262.102 68.1758C261.867 68.0977 261.594 68.0586 261.281 68.0586C260.383 68.2539 259.309 68.4297 258.059 68.5859C256.809 68.7422 255.539 68.8008 254.25 68.7617C252.961 68.7227 251.73 68.5469 250.559 68.2344C249.387 67.9609 248.43 67.4531 247.688 66.7109C247.375 66.4375 247.16 66.125 247.043 65.7734C246.965 65.3828 246.711 65.0898 246.281 64.8945C246.242 64.3867 246.164 63.8203 246.047 63.1953C245.93 62.5703 245.812 61.9258 245.695 61.2617C245.578 60.5586 245.48 59.875 245.402 59.2109C245.363 58.5469 245.402 57.9414 245.52 57.3945C245.637 56.8086 245.871 56.2812 246.223 55.8125C246.613 55.3438 246.75 54.8359 246.633 54.2891C246.828 54.25 246.945 54.1523 246.984 53.9961C247.023 53.8008 247.18 53.7227 247.453 53.7617C247.688 53.0586 247.941 52.3945 248.215 51.7695C248.488 51.1445 248.762 50.5391 249.035 49.9531C249.348 49.3672 249.641 48.7812 249.914 48.1953C250.227 47.5703 250.52 46.8867 250.793 46.1445C250.246 45.6367 249.836 45.0898 249.562 44.5039C249.328 43.8789 249.152 43.2734 249.035 42.6875C248.918 42.0625 248.82 41.4375 248.742 40.8125C248.664 40.1484 248.527 39.4844 248.332 38.8203C248.723 38.2344 249.191 37.7656 249.738 37.4141C250.324 37.0234 250.949 36.7109 251.613 36.4766C252.277 36.2422 253 36.0469 253.781 35.8906C254.562 35.7344 255.383 35.5586 256.242 35.3633C257.805 34.8555 259.191 34.4648 260.402 34.1914C261.652 33.918 262.863 33.7031 264.035 33.5469C265.246 33.3516 266.496 33.1758 267.785 33.0195C269.074 32.8633 270.539 32.6289 272.18 32.3164C272.531 32.668 272.863 32.8438 273.176 32.8438C273.332 32.4922 273.508 32.3945 273.703 32.5508C273.938 32.668 274.035 32.5508 273.996 32.1992C274.387 32.8633 274.875 33.4297 275.461 33.8984C276.086 34.3281 276.77 34.6992 277.512 35.0117Z" fill="#FEF4EE"/>
</g>
<defs>
<filter id="filter0_d_227_940" x="0" y="0.499985" width="96" height="96" filterUnits="userSpaceOnUse" color-interpolation-filters="sRGB">
<feFlood flood-opacity="0" result="BackgroundImageFix"/>
<feColorMatrix in="SourceAlpha" type="matrix" values="0 0 0 0 0 0 0 0 0 0 0 0 0 0 0 0 0 0 127 0" result="hardAlpha"/>
<feOffset dy="4"/>
<feGaussianBlur stdDeviation="4"/>
<feComposite in2="hardAlpha" operator="out"/>
<feColorMatrix type="matrix" values="0 0 0 0 0.156863 0 0 0 0 0.372549 0 0 0 0 0.333333 0 0 0 1 0"/>
<feBlend mode="normal" in2="BackgroundImageFix" result="effect1_dropShadow_227_940"/>
<feBlend mode="normal" in="SourceGraphic" in2="effect1_dropShadow_227_940" result="shape"/>
</filter>
<filter id="filter1_d_227_940" x="100.586" y="20.0547" width="184.984" height="62.4062" filterUnits="userSpaceOnUse" color-interpolation-filters="sRGB">
<feFlood flood-opacity="0" result="BackgroundImageFix"/>
<feColorMatrix in="SourceAlpha" type="matrix" values="0 0 0 0 0 0 0 0 0 0 0 0 0 0 0 0 0 0 127 0" result="hardAlpha"/>
<feOffset dy="4"/>
<feGaussianBlur stdDeviation="4"/>
<feComposite in2="hardAlpha" operator="out"/>
<feColorMatrix type="matrix" values="0 0 0 0 0.156863 0 0 0 0 0.372549 0 0 0 0 0.333333 0 0 0 1 0"/>
<feBlend mode="normal" in2="BackgroundImageFix" result="effect1_dropShadow_227_940"/>
<feBlend mode="normal" in="SourceGraphic" in2="effect1_dropShadow_227_940" result="shape"/>
</filter>
</defs>
</svg>
