<svg width="96" height="96" viewBox="0 0 96 96" fill="none" xmlns="http://www.w3.org/2000/svg">
<g filter="url(#filter0_d_227_943)">
<path fill-rule="evenodd" clip-rule="evenodd" d="M8.31845 21.7805C6.71681 15.719 11.1213 4.00001 22.3328 4.00001L75.1869 3.99999C80.4742 4.00002 88 4.79566 88 20.5682C82.0758 25.8091 66.0594 39.9528 61.2545 43.9938L88 67.0401C88 75.9305 84.4783 83.1918 74.0676 84H20.4127C14.807 83.1918 6.71683 78.3551 8.31846 67.8484C11.8773 67.8484 18.7353 67.7036 26.6464 67.5366C37.4273 67.309 50.1637 67.0401 59.1705 67.0401L8.31845 21.7805ZM34.427 20.9598H59.6529L47.2402 31.8706L34.427 20.9598Z" fill="#EB6538"/>
</g>
<defs>
<filter id="filter0_d_227_943" x="0" y="-1.14441e-05" width="96" height="96" filterUnits="userSpaceOnUse" color-interpolation-filters="sRGB">
<feFlood flood-opacity="0" result="BackgroundImageFix"/>
<feColorMatrix in="SourceAlpha" type="matrix" values="0 0 0 0 0 0 0 0 0 0 0 0 0 0 0 0 0 0 127 0" result="hardAlpha"/>
<feOffset dy="4"/>
<feGaussianBlur stdDeviation="4"/>
<feComposite in2="hardAlpha" operator="out"/>
<feColorMatrix type="matrix" values="0 0 0 0 0 0 0 0 0 0 0 0 0 0 0 0 0 0 0.25 0"/>
<feBlend mode="normal" in2="BackgroundImageFix" result="effect1_dropShadow_227_943"/>
<feBlend mode="normal" in="SourceGraphic" in2="effect1_dropShadow_227_943" result="shape"/>
</filter>
</defs>
</svg>
